<svg xmlns="http://www.w3.org/2000/svg" xmlns:xlink="http://www.w3.org/1999/xlink" width="26" height="26"><defs><linearGradient id="a"><stop offset="0" stop-color="#24f3d2"/><stop offset=".394" stop-color="#0674f0"/><stop offset=".507" stop-color="#6961b5"/><stop offset=".813" stop-color="#f34660"/><stop offset="1" stop-color="#ee078d"/></linearGradient><linearGradient id="b" x1="868.253" x2="937.656" y1="521.354" y2="588.736" gradientTransform="matrix(.833 0 0 .833 -718.775 596.81)" gradientUnits="userSpaceOnUse" xlink:href="#a"/></defs><g transform="translate(0 -1026.362)"><rect width="26" height="26" y="1026.362" fill="url(#b)" rx="5.495" ry="5.495"/><path fill="#fff" d="M8.281 1030.175c-.045-.006-.11.017-.156.03-.185.056-.274.252-.219.438l.344 1.25c.046.151.193.25.344.25.033 0 .06-.021.094-.031.184-.055.304-.252.25-.438l-.376-1.25a.335.335 0 0 0-.28-.25zm4.75.468a.405.405 0 0 0-.219.188l-.593 1.125a.35.35 0 0 0 .156.469.32.32 0 0 0 .156.03c.126 0 .25-.068.313-.187l.594-1.125a.35.35 0 0 0-.157-.468.316.316 0 0 0-.25-.032zM10 1032.925a3.53 3.53 0 0 0-2.5 1.156 3.575 3.575 0 0 0-.969 2.594c.028.824.324 1.594.844 2.218a3.268 3.268 0 0 0-1.469 2.719c0 1.676 1.259 3.072 2.938 3.281.05.027.097.063.156.063h6.313c.113 1.366 1.242 2.437 2.624 2.437a2.66 2.66 0 0 0 2.657-2.656c0-.147-.036-.291-.063-.438.815-.614 1.313-1.533 1.313-2.53a3.197 3.197 0 0 0-3.188-3.188H18.5c.003-.045.031-.081.031-.125a4.574 4.574 0 0 0-4.562-4.563c-.402 0-.785.058-1.156.157-.016-.015-.045-.02-.063-.032-.044-.044-.099-.115-.125-.125a3.637 3.637 0 0 0-2.625-.968zm-5.656.437a.402.402 0 0 0-.219.188c-.091.17-.014.376.156.468l1.157.625c.053.03.1.032.156.032.125 0 .25-.07.312-.188.091-.17.015-.377-.156-.469l-1.156-.625a.309.309 0 0 0-.25-.031zm5.687.25c.74-.027 1.47.237 2.031.719-1.508.715-2.58 2.225-2.624 4-.072-.01-.146 0-.22 0a3.27 3.27 0 0 0-1.218.219 2.915 2.915 0 0 1-.781-1.875A2.957 2.957 0 0 1 8 1034.55a2.89 2.89 0 0 1 2.031-.938zm3.938.969c2.118 0 3.844 1.745 3.844 3.875 0 .14 0 .294-.032.5a.31.31 0 0 0 .094.281c.08.078.203.114.313.094.15-.026.29-.031.468-.031a2.465 2.465 0 0 1 2.469 2.468 2.45 2.45 0 0 1-.813 1.813 2.881 2.881 0 0 0-.5-.719c-.007-.009-.02-.021-.03-.031l-1.563-1.813c-.133-.154-.43-.154-.563 0l-1.718 2a.285.285 0 0 0-.063.094 2.42 2.42 0 0 0-.531 1.125h-6.25c-.033-.014-.058-.031-.094-.031-1.346-.127-2.406-1.268-2.406-2.594 0-1.022.596-1.89 1.468-2.313.044-.018.09-.025.126-.062.313-.131.67-.188 1.03-.188.182 0 .375.005.563.032a.36.36 0 0 0 .313-.125.369.369 0 0 0 .062-.344.636.636 0 0 1-.031-.156c0-2.13 1.726-3.875 3.844-3.875zm-8.844 3.312-1.219.407a.343.343 0 0 0-.219.437c.049.148.166.25.313.25.036 0 .089-.02.125-.031l1.219-.406a.343.343 0 0 0 .218-.438.343.343 0 0 0-.437-.219zm12.813 3.875 1.343 1.532a2.098 2.098 0 0 1 .594 1.438c0 1.066-.884 1.968-1.938 1.968-1.07 0-1.937-.884-1.937-1.969 0-.486.164-.924.469-1.25.03-.031.048-.086.062-.125l1.407-1.594z"/></g></svg>